<?xml version="1.0" encoding="UTF-8"?>
<svg id="Layer_1" xmlns="http://www.w3.org/2000/svg" viewBox="0 0 87.76 130">
  <path d="M41.11,108.28c-1.1,5.73-5.31,6.21-9.13,6.71-.78,2.77.72,4,2.43,4.6,6.17,2.18,11.95.93,14.24-5.79.89-2.85,1.45-5.78,1.68-8.76.28-2.76.06-5.57.06-8.77-1.51-.08-3.13-.19-4.75-.24-1.66.09-3.33.05-4.99-.13-6.04-1.22-11.02.4-16.3,3.74-7.22,4.57-17.99,2.34-23.38-6.47-2.48-4.05-.07-12.09,6.12-10.73,1.12.25,2.35,0,3.48.23,5.06.98,7.18,5.53,4.79,10.14-.29.56-.59,1.12-.98,1.87,2,1.66,3.57.54,4.94-.51,3.04-2.41,5.14-5.82,5.92-9.62,2.06-8.9,3.95-17.86,2.32-27.1-.32-1.79-.19-3.66-.5-5.46-1.46-8.57-6.08-14.92-13.56-19.32-2.52-1.48-4.83-3.33-7.23-5.01l.25-1.02c1.2-.11,2.48-.54,3.59-.27,5.97,1.43,11.93,2.92,17.81,4.63,2.98.87,4.69.91,8.96-.98,0-.33.14-.79-.02-.95-5.74-5.98-4.95-13.07-3.23-20.17.7-2.99,2.79-5.47,5.61-6.67,6.83-3.02,13.58-3.23,20.02.91,3.2,2.06,4.42,5.19,4.01,9.04-.39,3.72-1.59,6.77-5.3,8.34-4.05,1.72-7.58.35-9.47-3.74-1.87-4.05-.81-6.78,3.48-8.88.66-.32,1.39-.53,2.31-.88-3.64-2.62-6.35-2.05-7.52,1.54-2.13,6.48-1.78,12.79,2.15,18.62,1.43,2.5,4.17,3.96,7.05,3.74,7-.27,13.45,2.19,19.47,5.46,5.66,3.08,6.92,10.82,2.99,16.09-.88,1.18-1.87,2.27-3.04,3.67,1.44,1.2,2.71,2.21,3.93,3.29,4.36,3.85,7.62,8.35,8.32,14.32,1.23,10.59-5.32,18.28-15.16,21.05-2.85.8-5.81,1.23-9.12,1.91,0,3.6-.03,7.06,0,10.52.1,8.06-3.2,14.49-9.42,19.46-7.52,6.01-24.57,3.45-29.76-4.67-2.18-3.4-3.08-7.46-1.4-11.42,1.2-2.84,1.94-5.88,4.68-8.06,4.68-3.72,12.31-1.53,13.18,4.07.12.56.27,1.12.47,1.66h0ZM50.25,89.24c0-3.56.2-6.7-.04-9.81-.45-5.59-.96-11.2-1.86-16.73-.54-3.34-1.36-3.5-5.69-2.31-1.7,9.71-3.95,19.46-8.95,28.38,4.31,1.28,12.06,1.4,16.55.46ZM62,87.28c7.45-1.92,10.51-10.85,9.22-17.81-.88-4.75-8.47-10.15-13.85-9.57,1.53,9.04,3.04,18.04,4.63,27.38ZM51.42,38.74c1.38,4.76,2.4,9.07,4.42,12.83,4.55.49,7.08-.21,9.07-2.36,2.21-2.39,2.28-5.08-.3-6.9-3.69-2.59-7.78-4.31-13.19-3.57ZM44.13,38.8h-8.59l5.46,13.1,6.17-.89c-1.08-4.34-2.01-8.08-3.03-12.21h0Z"/>
</svg>