<?xml version="1.0" encoding="UTF-8"?>
<svg id="Layer_1" xmlns="http://www.w3.org/2000/svg" viewBox="0 0 55.23 223.38">
  <path d="M55.21,32.8c.34,11.61-2.89,22.45-7.98,32.64-6.69,13.38-14.31,26.29-20.93,39.7-7.45,14.73-12.28,30.64-14.27,47.02-1.62,12.9-.4,26,3.57,38.38,1.62,4.91,5.21,9.17,7.92,13.72.19.27.43.51.69.72,2.97,2.72,7.5,3.78,10.12,2.36,3.28-1.77,5.95-6.87,5.61-10.54-.21-2.27-1.7-3.53-3.44-4.59-1.56-.95-3.19-1.8-4.8-2.66-3.85-2.07-5.02-5.56-5.08-9.62-.09-6.41,5.15-11.06,9.12-12.6,4.92-1.91,9.89-.31,13.67,4.45,3.29,4.13,5.4,8.8,5.25,14.22-.3,10.86-2.37,21.17-9.8,29.65-1.75,1.99-3.7,3.81-5.81,5.42-3.1,2.4-7.26,2.95-10.88,1.45-9.73-3.46-16.56-9.62-20.72-19.39-8.77-20.63-9.43-41.54-3.92-62.96,3.21-12.49,8.87-23.98,14.38-35.54,2.15-4.5,4.12-9.09,6.36-13.55,3.06-6.1,6.35-12.07,9.42-18.16,4.14-8.36,6.59-17.47,7.2-26.78.53-5.45.76-10.92.7-16.4-.22-3.8-.91-7.56-2.05-11.18-.78-3.38-3.79-5.77-7.26-5.78-3.97-.1-7.55,2.38-8.85,6.14-1.83,5.49-.86,11.52,2.59,16.16,2.28,3.3,3.58,6.8,3.03,10.77-.17,1.82-.74,3.57-1.65,5.15-1.74,2.6-3.7,5.22-7.54,4.75-4.12-.35-7.62-3.15-8.86-7.1-2.19-6.27-3.97-12.61-2.24-19.47,1.87-7.46,3.81-14.81,8.7-21,2.61-3.28,6.06-5.78,9.99-7.25,6.42-2.46,14.55-.04,18.86,5.45,5.29,6.5,8.4,14.51,8.89,22.88.06,1.16,0,2.33,0,3.5Z"/>
</svg>