<?xml version="1.0" encoding="UTF-8"?>
<svg id="Layer_1" xmlns="http://www.w3.org/2000/svg" viewBox="0 0 57.55 346.66">
  <path d="M57.55,88.62c-1.13,19.2-1.42,38.39-7.28,56.83-1.4,4.39-3.72,8.52-5.89,12.62-5.04,9.56-10.48,18.91-15.3,28.58-4.91,10.21-8.54,20.98-10.8,32.08-1.39,6.33-3.03,12.65-3.79,19.07-1.44,12.21-3.14,24.49-2.18,36.79,1.28,16.41,5.32,32.16,13.71,46.53,1.91,3.34,4.75,6.06,8.17,7.82,3.1,1.61,6.15,1.86,8.98-.1s3.68-5.11,3.55-8.38c-.16-2.15-.54-4.28-1.14-6.36-1.02-4.11-3.07-6.89-7.67-8.13-13.73-3.72-16.54-19.72-10.03-28.56,3.12-4.24,10.51-5.89,14.75-2.82,7.08,4.93,11.46,12.88,11.84,21.5.38,5.29,1.21,10.55,2.03,15.79,1.02,6.92.82,13.96-.57,20.82-1.61,8.43-5.24,11.91-14.42,13.47-6.32,1.08-12.68.53-18.03-3.81-1.05-.79-2.02-1.69-2.9-2.67-9.48-11.26-15.76-24.86-18.21-39.37-1.83-10.54-2.89-21.12-2.15-31.75.74-12.96,2.73-25.82,5.95-38.39,2.56-9.48,4.88-19.03,7.83-28.39,3.32-10.82,7.71-21.29,13.08-31.25.78-1.28,1.44-2.63,1.97-4.04,4.54-14.06,11.19-27.46,13.29-42.28.79-5.59,1.39-11.21,2-16.83.39-3.63.8-7.27.91-10.92.36-11.8.75-23.6.8-35.41.11-6.64-.23-13.28-1.01-19.88-1.11-8.39-2.94-16.75-6.78-24.37-1.51-3.01-4.26-5.43-6.64-7.95-1.61-1.7-3.59-1.5-5.43-.14-2,1.49-3.26,4.68-2.32,6.54,1.26,2.53,2.69,4.98,4.29,7.32,2.74,3.96,2.49,8.28,1.37,12.48-1.22,4.56-5.64,6.16-9.94,4.12-2.57-1.23-4.68-3.23-6.04-5.74-4.67-8.17-3.15-21.74,2.73-28.68C19.26,1.25,23.84-.51,28.41.13c6.34.68,11.61,3.23,15.26,9.02,6.29,9.86,10.03,21.13,10.88,32.8.77,10.27,1.19,20.57,1.83,30.86.33,5.3.79,10.59,1.18,15.81Z"/>
</svg>