<?xml version="1.0" encoding="UTF-8"?>
<svg id="Layer_1" xmlns="http://www.w3.org/2000/svg" viewBox="0 0 47.67 236.83">
  <path d="M8.32,60.3c.6,17.89,2.74,32.84,7.44,47.29,2.31,7.1,5.42,13.95,8.42,20.81,4,9.14,8.98,17.93,12.2,27.32,4.51,13.18,9.46,26.39,10.69,40.44,1.03,10.86-1.45,21.76-7.07,31.11-2.49,4.18-6.4,6.7-10.8,8.51-5.13,2.11-10.14.8-14.3-1.94-6.67-4.4-10.76-10.77-10.67-19.13-.04-3.16-.79-6.26-2.2-9.09-3.51-7.79,1.11-18.24,9.01-20.88,7.94-2.65,16.72,4.57,15.46,12.9-.63,4.15-1.91,8.06-6.02,10.41-3.79,2.17-4.69,5.81-4.15,9.94.5,3.81,3.19,5.85,7.03,5.14,3.71-.69,6.18-3.04,7.94-6.28,3.82-6.92,5.02-14.99,3.37-22.72-2.6-13.27-7.13-25.96-11.7-38.65-1.97-5.47-3.16-11.22-5.21-16.66-5.06-13.21-9.2-26.75-12.39-40.54-1.94-9.1-3.38-18.3-4.32-27.56C.22,63.63-.11,56.47.03,49.32c.1-12.87,3.45-25.52,9.75-36.74C15.21,3.05,24.22-1.41,34.96.39c1.95.36,3.74,1.33,5.12,2.76,3.95,4.32,6.48,9.74,7.25,15.54.71,5.59.33,11.27-1.11,16.71-.99,4.97-4.06,9.29-8.43,11.86-5.93,3.47-12.89.4-14.15-6.39-.69-3.81.16-7.75,2.37-10.93,1.81-2.78,3.32-5.75,4.88-8.68.36-.75.58-1.56.64-2.39.47-4.1-1.69-5.94-5.72-4.78-4.4,1.27-7.25,4.34-9.58,8.19-3.54,5.84-5.02,12.32-5.95,18.9-1.02,7.23-1.5,14.52-1.96,19.13Z"/>
</svg>