<?xml version="1.0" encoding="UTF-8"?>
<svg id="Layer_1" xmlns="http://www.w3.org/2000/svg" viewBox="0 0 49.79 216.16">
  <path d="M36.75,153.43c.28-17.8-2.06-35.54-6.94-52.65-3.02-10.51-8.37-19.86-14.83-28.67C6.6,60.66,1.31,48.16,3,33.52c.8-6.94,1.14-13.95,3.98-20.49,1.74-4.01,3.89-7.6,7.54-10.33,4.95-3.71,10.04-3.19,15.08-.87,3.42,1.44,6.23,4.04,7.94,7.34,2.94,6.13,5.7,12.26,6.98,19.12,1.19,6.34.38,12.2-1.29,18.15-.8,2.92-2.58,5.49-5.03,7.27-4.46,3.31-9.85,2.22-12.91-2.38-4.26-6.41-2.61-13.97,3.03-17.07,5.33-2.93,5.71-7.46,5.53-12.29-.09-2.56-1.17-5.16-2.16-7.6-1.13-2.81-3.67-3.7-6.51-3.76-2.44-.12-4.63,1.48-5.26,3.85-1.24,3.6-2.97,7.23-3.2,10.93-.82,13-.66,26.03,4.81,38.24,3.46,7.72,7.39,15.24,11.12,22.84,4.91,10.02,9.27,20.19,11.92,31.13,2.81,11.55,3.2,23.32,4.61,35,1.74,14.46-.57,28.5-3.27,42.54-1.18,6.15-4.34,11.49-8.18,16.39-2.33,2.97-5.84,3.89-9.24,4.32-3.64.41-7.32.4-10.96-.03-9.66-1.03-16.68-11.57-17.45-18.32-.82-7.22,4.75-15.75,11.66-18.01,4.37-1.42,8.46-.44,10.9,2.62,2.51,3.49,2.49,8.19-.05,11.66-1.45,1.82-3.01,3.55-4.69,5.17-2.91,3.12-3.15,4.35-1.32,6.87,1.8,2.57,5.19,3.45,8.01,2.09,3.31-1.67,6.22-3.84,7.53-7.58,2.38-6.4,3.73-13.14,4-19.97.1-4.49.5-8.96.61-13.45s.02-8.99.02-13.49Z"/>
</svg>